<?xml version="1.0" encoding="utf-8"?>
<!-- Generator: Adobe Illustrator 21.0.2, SVG Export Plug-In . SVG Version: 6.00 Build 0)  -->
<svg version="1.1" id="Layer_1" xmlns="http://www.w3.org/2000/svg" xmlns:xlink="http://www.w3.org/1999/xlink" x="0px" y="0px"
	 viewBox="0 0 40 40" style="enable-background:new 0 0 40 40;" xml:space="preserve">
<style type="text/css">
	.st0{fill:#B11F24;}
</style>
<g>
	<g>
		<path class="st0" d="M39.6,34.4c0.5,0.9,0.5,1.9,0,2.8c-0.5,0.9-1.5,1.4-2.5,1.4H2.9c-1,0-1.9-0.5-2.5-1.4s-0.5-1.9,0-2.8
			L17.5,2.9C18,2,19,1.4,20,1.4s2,0.6,2.5,1.5L39.6,34.4z M23.2,13.5c0-0.1-0.1-0.3-0.2-0.4c-0.1-0.1-0.3-0.2-0.5-0.2h-4.9
			c-0.2,0-0.4,0.1-0.5,0.2c-0.2,0.1-0.2,0.3-0.2,0.5l0.4,10.2c0,0.3,0.3,0.5,0.8,0.5h4.1c0.4,0,0.7-0.2,0.8-0.5L23.2,13.5z
			 M22.9,27.9c0-0.4-0.3-0.7-0.7-0.7h-4.3c-0.4,0-0.7,0.3-0.7,0.7v4.2c0,0.4,0.3,0.7,0.7,0.7h4.3c0.4,0,0.7-0.3,0.7-0.7V27.9z"/>
	</g>
</g>
</svg>
