<?xml version="1.0" encoding="utf-8"?>
<!-- Generator: Adobe Illustrator 21.0.2, SVG Export Plug-In . SVG Version: 6.00 Build 0)  -->
<svg version="1.1" id="Layer_1" xmlns="http://www.w3.org/2000/svg" xmlns:xlink="http://www.w3.org/1999/xlink" x="0px" y="0px"
	 viewBox="0 0 40 40" style="enable-background:new 0 0 40 40;" xml:space="preserve">
<style type="text/css">
	.st0{fill:#B11F24;}
</style>
<g>
	<g>
		<path class="st0" d="M30.8,28.2l-2.6,2.6c-0.3,0.3-0.8,0.5-1.3,0.5c-0.5,0-1-0.2-1.3-0.5L20,25.2l-5.6,5.6
			c-0.3,0.3-0.8,0.5-1.3,0.5c-0.5,0-1-0.2-1.3-0.5l-2.6-2.6c-0.3-0.3-0.5-0.8-0.5-1.3s0.2-1,0.5-1.3l5.6-5.6l-5.6-5.6
			c-0.3-0.3-0.5-0.8-0.5-1.3c0-0.5,0.2-1,0.5-1.3l2.6-2.6c0.3-0.3,0.8-0.5,1.3-0.5c0.5,0,1,0.2,1.3,0.5l5.6,5.6l5.6-5.6
			c0.3-0.3,0.8-0.5,1.3-0.5c0.5,0,1,0.2,1.3,0.5l2.6,2.6c0.3,0.3,0.5,0.8,0.5,1.3c0,0.5-0.2,1-0.5,1.3L25.2,20l5.6,5.6
			c0.3,0.3,0.5,0.8,0.5,1.3S31.2,27.9,30.8,28.2z"/>
	</g>
</g>
</svg>
