<?xml version="1.0" encoding="utf-8"?>
<!-- Generator: Adobe Illustrator 21.0.2, SVG Export Plug-In . SVG Version: 6.00 Build 0)  -->
<svg version="1.1" id="Layer_1" xmlns="http://www.w3.org/2000/svg" xmlns:xlink="http://www.w3.org/1999/xlink" x="0px" y="0px"
	 viewBox="0 0 40 40" style="enable-background:new 0 0 40 40;" xml:space="preserve">
<style type="text/css">
	.st0{fill:#231F20;}
</style>
<g>
	<g>
		<path class="st0" d="M39.6,20c0,10.8-8.8,19.6-19.6,19.6C9.2,39.6,0.4,30.8,0.4,20C0.4,9.2,9.2,0.4,20,0.4
			C30.8,0.4,39.6,9.2,39.6,20z M23.7,7.6c0-0.2-0.1-0.4-0.3-0.5C23.3,7,23,6.9,22.8,6.9h-5.6c-0.2,0-0.5,0.1-0.6,0.2
			c-0.2,0.1-0.3,0.3-0.3,0.5l0.4,15.8c0,0.4,0.4,0.6,0.9,0.6h4.7c0.5,0,0.8-0.3,0.9-0.6L23.7,7.6z M23.3,27.4c0-0.5-0.4-0.8-0.8-0.8
			h-4.9c-0.5,0-0.8,0.4-0.8,0.8v4.8c0,0.5,0.4,0.8,0.8,0.8h4.9c0.4,0,0.8-0.4,0.8-0.8V27.4z"/>
	</g>
</g>
</svg>
