<?xml version="1.0" encoding="utf-8"?>
<!-- Generator: Adobe Illustrator 21.0.2, SVG Export Plug-In . SVG Version: 6.00 Build 0)  -->
<svg version="1.1" id="Layer_1" xmlns="http://www.w3.org/2000/svg" xmlns:xlink="http://www.w3.org/1999/xlink" x="0px" y="0px"
	 viewBox="0 0 40 40" style="enable-background:new 0 0 40 40;" xml:space="preserve">
<style type="text/css">
	.st0{fill:#231F20;}
</style>
<g>
	<g>
		<path class="st0" d="M29.4,18.6L13.5,34.5h-8v-8l15.9-15.9L29.4,18.6z M14.2,30.3l-4.5-4.5L8,27.6v2h2.5V32h2L14.2,30.3z M22,13.9
			c-0.1,0-0.2,0-0.3,0.1L11.3,24.4c-0.1,0.1-0.1,0.2-0.1,0.3c0,0.2,0.2,0.4,0.4,0.4c0.1,0,0.2,0,0.3-0.1l10.4-10.4
			c0.1-0.1,0.1-0.2,0.1-0.3C22.5,14,22.3,13.9,22,13.9z M33.8,14.2l-3.2,3.2l-8-8l3.2-3.2c0.4-0.5,1.1-0.7,1.7-0.7s1.3,0.3,1.7,0.7
			l4.5,4.5c0.4,0.5,0.7,1.1,0.7,1.7S34.2,13.7,33.8,14.2z"/>
	</g>
</g>
</svg>
