<?xml version="1.0" encoding="utf-8"?>
<!-- Generator: Adobe Illustrator 21.0.2, SVG Export Plug-In . SVG Version: 6.00 Build 0)  -->
<svg version="1.1" id="Layer_1" xmlns="http://www.w3.org/2000/svg" xmlns:xlink="http://www.w3.org/1999/xlink" x="0px" y="0px"
	 viewBox="0 0 40 40" style="enable-background:new 0 0 40 40;" xml:space="preserve">
<style type="text/css">
	.st0{fill:#005FA5;}
</style>
<g>
	<g>
		<path class="st0" d="M20,39.6C9.2,39.6,0.4,30.8,0.4,20C0.4,9.2,9.2,0.4,20,0.4c10.8,0,19.6,8.8,19.6,19.6
			C39.6,30.8,30.8,39.6,20,39.6z M26.5,28.2c0-0.5-0.4-0.8-0.8-0.8h-2.4V14.3c0-0.5-0.4-0.8-0.8-0.8h-8.2c-0.5,0-0.8,0.4-0.8,0.8
			v4.1c0,0.5,0.4,0.8,0.8,0.8h2.5v8.2h-2.5c-0.5,0-0.8,0.4-0.8,0.8v4.1c0,0.5,0.4,0.8,0.8,0.8h11.4c0.5,0,0.8-0.4,0.8-0.8V28.2z
			 M23.3,5.3c0-0.5-0.4-0.8-0.8-0.8h-4.9c-0.5,0-0.8,0.4-0.8,0.8v4.1c0,0.5,0.4,0.8,0.8,0.8h4.9c0.5,0,0.8-0.4,0.8-0.8V5.3z"/>
	</g>
</g>
</svg>
