<svg id="Layer_1" data-name="Layer 1" xmlns="http://www.w3.org/2000/svg" viewBox="0 0 70 70"><defs><style>.cls-1{fill:#dfe0e2;}.cls-2{fill:#70787c;}</style></defs><title>Artboard 1</title><path class="cls-1" d="M35,2A33,33,0,1,1,2,35,33,33,0,0,1,35,2m0-2A35,35,0,1,0,70,35,35,35,0,0,0,35,0Z"/><path class="cls-2" d="M45,19h2V17H23v2h2c.18,7.34,2.33,13.88,5.56,17C27.35,39.12,25.2,45.66,25,53H23v2H47V53H45c-.18-7.34-2.33-13.88-5.56-17C42.65,32.88,44.8,26.34,45,19ZM43,53H27c.19-7.33,2.48-13.9,5.7-16.18L33.86,36l-1.15-.82C29.5,32.9,27.21,26.33,27,19H43c-.19,7.33-2.48,13.9-5.7,16.18L36.14,36l1.15.82C40.5,39.1,42.79,45.67,43,53ZM35,34a6.3,6.3,0,0,1-2.5-1.5A7,7,0,0,1,31,30h8a8.19,8.19,0,0,1-1.54,2.46A7.5,7.5,0,0,1,35,34Zm0,9,5.72,5.72L41,51H29l.27-2.27Z"/></svg>